<?xml version="1.0" standalone="no"?>
<!DOCTYPE svg PUBLIC "-//W3C//DTD SVG 20010904//EN"
 "http://www.w3.org/TR/2001/REC-SVG-20010904/DTD/svg10.dtd">
<svg version="1.0" xmlns="http://www.w3.org/2000/svg"
 width="1350.000000pt" height="1350.000000pt" viewBox="0 0 1350.000000 1350.000000"
 preserveAspectRatio="xMidYMid meet">
<metadata>
Created by potrace 1.10, written by Peter Selinger 2001-2011
</metadata>
<g transform="translate(0.000000,1350.000000) scale(0.100000,-0.100000)"
fill="#000000" stroke="none">
<path d="M10765 8728 c-3 -7 -4 -879 -3 -1938 l3 -1925 603 -3 c404 -1 609 1
623 8 18 10 19 23 19 249 0 209 -2 240 -16 245 -9 3 -175 6 -370 6 l-354 0 0
1666 c0 1129 -3 1672 -10 1685 -10 18 -24 19 -251 19 -182 0 -241 -3 -244 -12z"/>
<path d="M1910 8331 c0 -341 -2 -392 -16 -405 -13 -13 -44 -16 -185 -16 l-169
0 2 -252 3 -253 180 -5 180 -5 6 -945 c6 -1048 1 -974 74 -1125 101 -206 280
-356 505 -424 73 -21 189 -34 208 -22 9 6 12 67 10 257 l-3 249 -40 6 c-90 14
-180 81 -224 168 -21 40 -21 50 -21 940 l0 901 178 2 177 3 3 252 2 253 -177
2 -178 3 -5 400 -5 400 -252 3 -253 2 0 -389z"/>
<path d="M7377 8714 c-11 -11 -8 -53 7 -103 17 -53 37 -128 61 -221 9 -36 23
-90 32 -120 23 -84 47 -177 90 -340 8 -30 20 -77 28 -105 13 -49 34 -128 62
-235 13 -51 21 -78 58 -215 7 -27 21 -79 30 -115 20 -79 38 -147 59 -220 8
-30 17 -64 19 -75 3 -11 15 -56 27 -100 18 -69 20 -86 10 -125 -12 -43 -25
-94 -55 -205 -8 -27 -21 -79 -31 -115 -18 -72 -39 -149 -59 -225 -8 -27 -21
-79 -30 -115 -9 -36 -23 -90 -32 -120 -22 -79 -39 -146 -58 -220 -9 -36 -23
-87 -30 -115 -8 -27 -21 -79 -31 -115 -18 -72 -39 -149 -59 -225 -8 -27 -21
-79 -30 -115 -23 -92 -41 -156 -61 -222 -28 -89 -29 -88 206 -88 109 0 205 3
214 6 19 7 28 37 91 284 9 36 23 88 30 115 8 28 21 79 30 115 9 36 22 88 30
115 7 28 21 79 30 115 9 36 22 88 30 115 7 28 18 68 24 90 6 22 17 49 25 60
14 19 15 19 21 -10 7 -36 31 -131 50 -200 7 -27 21 -79 31 -115 29 -113 60
-228 88 -332 8 -29 22 -82 31 -118 9 -36 23 -85 31 -110 8 -25 14 -55 14 -67
0 -13 9 -32 20 -43 19 -19 33 -20 218 -20 228 0 241 4 224 61 -17 56 -38 136
-89 329 -8 30 -20 78 -28 105 -7 28 -21 79 -30 115 -9 36 -23 89 -31 118 -8
28 -20 76 -28 105 -8 28 -22 81 -31 117 -16 64 -30 118 -59 223 -8 28 -22 81
-31 117 -23 92 -44 167 -61 221 -7 26 -14 54 -14 64 0 10 -6 38 -14 64 -8 25
-22 73 -31 106 -9 33 -23 81 -31 106 -18 59 -18 79 2 148 16 57 32 115 59 216
8 30 21 79 29 108 8 28 22 81 31 117 9 36 23 88 30 115 8 28 21 79 31 115 9
36 22 85 29 110 7 25 20 74 29 110 10 36 23 88 31 115 7 28 21 79 30 115 9 36
23 89 31 118 8 28 20 76 28 105 8 28 22 81 31 117 9 36 23 89 31 117 8 29 21
77 28 105 8 29 21 77 30 107 8 30 13 58 10 63 -3 4 -102 8 -220 8 l-214 0 -20
-32 c-11 -18 -20 -42 -20 -53 0 -11 -6 -40 -14 -65 -17 -53 -38 -131 -61 -220
-18 -70 -34 -129 -60 -225 -10 -33 -24 -84 -31 -112 -8 -29 -21 -77 -29 -105
-19 -74 -43 -167 -50 -203 -6 -29 -7 -29 -21 -10 -8 11 -19 38 -25 60 -6 22
-16 63 -24 90 -20 76 -41 153 -59 225 -10 36 -23 88 -31 115 -7 28 -21 79 -30
115 -9 36 -23 88 -30 115 -8 28 -21 79 -31 115 -9 36 -25 92 -34 125 l-18 60
-214 3 c-118 1 -217 -1 -221 -4z"/>
<path d="M9017 8714 c-10 -10 5 -73 76 -334 9 -30 23 -84 32 -120 9 -36 23
-89 31 -117 8 -29 20 -77 28 -105 14 -52 34 -126 63 -238 28 -107 41 -156 56
-210 9 -30 23 -84 32 -120 9 -36 23 -90 31 -120 32 -117 43 -157 59 -220 18
-69 32 -123 62 -230 22 -80 23 -160 1 -231 -9 -30 -24 -83 -34 -119 -29 -112
-45 -173 -59 -225 -7 -27 -21 -79 -30 -115 -9 -36 -23 -89 -31 -117 -8 -29
-20 -77 -28 -105 -8 -29 -22 -82 -31 -118 -9 -36 -23 -87 -30 -115 -8 -27 -21
-79 -31 -115 -18 -72 -39 -149 -59 -225 -8 -27 -21 -79 -31 -115 -43 -168 -60
-231 -89 -336 -29 -105 -42 -99 201 -102 161 -2 214 1 221 10 11 14 31 76 57
178 10 36 23 88 31 115 7 28 21 79 30 115 9 36 22 88 30 115 7 28 21 79 30
115 9 36 22 86 30 111 8 26 15 57 15 68 0 12 5 31 10 41 6 11 15 43 20 72 12
61 35 92 50 68 5 -8 10 -26 10 -40 0 -14 6 -45 14 -70 8 -25 22 -74 31 -110
16 -63 29 -115 59 -223 8 -28 22 -81 31 -117 9 -36 23 -89 31 -117 8 -29 21
-79 30 -110 8 -32 22 -79 30 -104 7 -26 14 -56 14 -67 0 -46 30 -52 240 -52
107 0 201 4 209 9 15 10 11 49 -13 131 -8 25 -21 74 -30 110 -10 36 -23 88
-31 115 -7 28 -21 79 -30 115 -9 36 -23 89 -31 118 -8 28 -20 76 -28 105 -8
28 -22 81 -31 117 -9 36 -23 89 -31 117 -8 29 -20 77 -28 105 -8 29 -22 82
-31 118 -9 36 -22 88 -30 115 -13 48 -31 117 -62 235 -8 30 -20 78 -28 105 -7
28 -21 79 -30 115 -9 36 -23 85 -31 110 -18 57 -18 113 0 170 8 25 22 74 31
110 9 36 23 89 31 117 25 92 42 156 60 223 23 89 54 208 88 333 8 28 22 81 31
117 9 36 23 89 31 118 8 28 20 76 28 105 8 28 22 81 31 117 9 36 23 88 30 115
37 137 45 164 58 215 36 138 49 188 59 221 6 20 7 42 4 48 -5 7 -74 11 -217
11 -196 0 -210 -1 -229 -20 -11 -11 -20 -30 -20 -42 0 -12 -7 -46 -16 -77 -16
-57 -32 -115 -59 -216 -8 -30 -22 -81 -31 -112 -37 -139 -43 -161 -60 -223
-28 -110 -46 -173 -60 -219 -8 -25 -14 -54 -14 -65 0 -12 -5 -28 -10 -36 -9
-13 -13 -12 -30 9 -11 13 -20 32 -20 44 0 11 -7 45 -16 76 -19 67 -37 133 -60
221 -18 72 -39 149 -59 225 -8 28 -21 79 -31 115 -50 193 -75 281 -84 300 -6
13 -43 15 -222 18 -118 1 -217 -1 -221 -4z"/>
<path d="M3055 8538 c-3 -13 -4 -124 -3 -248 l3 -225 253 -3 252 -2 -2 247 -3
248 -247 3 -248 2 -5 -22z"/>
<path d="M3847 8003 c-4 -3 -7 -714 -7 -1580 l0 -1573 23 0 c211 -3 482 1 488
7 5 5 10 564 11 1242 l3 1233 40 34 c62 53 132 45 187 -21 16 -19 17 -103 18
-1252 0 -753 4 -1234 9 -1238 7 -4 364 -8 494 -5 17 0 17 59 15 1283 l-3 1282
-23 57 c-69 178 -188 311 -342 383 -90 42 -153 55 -277 55 l-123 0 0 38 c0 21
-5 43 -12 50 -13 13 -489 18 -501 5z"/>
<path d="M3057 7903 c-4 -3 -7 -683 -7 -1509 l0 -1504 23 -5 c12 -3 126 -4
252 -3 l230 3 3 1513 2 1512 -248 0 c-137 0 -252 -3 -255 -7z"/>
<path d="M5175 7868 c4 -24 13 -65 20 -93 18 -67 63 -248 75 -305 4 -19 13
-57 20 -85 6 -27 18 -76 26 -107 8 -32 20 -84 28 -115 8 -32 20 -80 26 -108 7
-27 16 -66 20 -85 10 -48 29 -126 45 -185 17 -65 36 -141 45 -185 7 -34 17
-73 47 -195 20 -83 55 -228 78 -325 7 -30 21 -86 30 -125 9 -38 20 -86 25
-105 12 -56 31 -131 45 -185 22 -85 63 -255 74 -310 8 -42 22 -94 48 -185 11
-39 16 -97 16 -195 1 -145 -7 -183 -59 -284 -40 -79 -179 -171 -259 -171 -24
0 -37 -6 -45 -19 -12 -24 -14 -480 -1 -500 9 -14 51 -12 176 8 170 29 347 142
469 301 111 145 169 286 226 550 4 19 13 58 20 85 6 28 18 75 25 105 8 30 20
82 28 115 30 122 40 161 47 195 9 43 23 100 70 285 7 28 16 68 21 90 11 55 34
152 47 200 6 22 18 72 27 110 9 39 22 95 30 125 7 30 20 82 28 115 8 33 20 80
27 105 6 25 15 63 19 85 9 44 18 81 71 290 7 28 16 68 21 90 11 56 34 152 48
205 7 25 18 70 26 100 7 30 19 78 25 105 7 28 16 66 20 85 4 19 13 58 20 85 6
28 18 75 25 105 8 30 19 75 26 100 7 25 16 63 20 85 5 22 15 69 23 104 8 36
13 68 10 73 -3 4 -120 8 -259 8 -287 0 -266 6 -284 -82 -19 -88 -54 -238 -76
-323 -16 -59 -35 -137 -45 -185 -4 -19 -13 -57 -20 -85 -6 -27 -18 -76 -26
-107 -8 -32 -21 -86 -30 -120 -8 -35 -21 -88 -29 -118 -7 -30 -19 -77 -25
-105 -7 -27 -16 -66 -20 -85 -4 -19 -13 -57 -20 -85 -6 -27 -18 -76 -26 -107
-8 -32 -21 -84 -29 -115 -8 -32 -22 -91 -32 -131 -11 -40 -23 -74 -28 -75 -5
-1 -13 14 -16 33 -4 19 -12 58 -19 85 -6 28 -18 75 -25 105 -8 30 -20 82 -29
115 -8 33 -22 92 -31 130 -9 39 -22 95 -30 125 -38 154 -66 269 -75 310 -4 19
-13 58 -20 85 -6 28 -18 75 -25 105 -8 30 -19 75 -26 100 -15 56 -37 153 -48
205 -4 22 -13 60 -20 85 -16 59 -37 145 -48 195 l-8 40 -268 3 -269 2 7 -42z"/>
</g>
</svg>
