<?xml version="1.0" encoding="UTF-8" standalone="no"?>
<!DOCTYPE svg PUBLIC "-//W3C//DTD SVG 1.1//EN" "http://www.w3.org/Graphics/SVG/1.1/DTD/svg11.dtd">
<svg width="100%" height="100%" viewBox="0 0 2363 2363" version="1.1" xmlns="http://www.w3.org/2000/svg" xmlns:xlink="http://www.w3.org/1999/xlink" xml:space="preserve" xmlns:serif="http://www.serif.com/" style="fill-rule:evenodd;clip-rule:evenodd;stroke-linejoin:round;stroke-miterlimit:2;">
    <g transform="matrix(1.27294,0,0,1.27294,1181.1,1123.1)">
        <g transform="matrix(1,0,0,1,-729.167,-362.302)">
            <clipPath id="_clip1">
                <rect x="0" y="0" width="1458.33" height="724.605"/>
            </clipPath>
            <g clip-path="url(#_clip1)">
                <g id="SvgjsG1007" transform="matrix(4.66606,0,0,4.66606,497.998,-108.791)">
                    <g>
                        <path d="M83.003,29.823C81.255,28.736 71.364,23.315 48.297,23.315C27.348,23.315 17.492,27.76 17.083,27.949C16.702,28.125 16.472,28.52 16.506,28.938C18.19,49.488 33.538,75.63 46.816,87.154C47.002,87.316 47.236,87.399 47.471,87.399C47.661,87.399 47.851,87.345 48.018,87.236C55.613,82.273 62.528,74.491 70.441,62.001C77.339,51.115 83.476,35.414 83.476,30.672C83.476,30.327 83.297,30.005 83.003,29.823ZM75.503,28.773C71.335,28.315 65.981,27.856 61.258,27.856L60.542,27.856C51.228,27.847 43.199,27.849 30.363,33.98C30.119,34.097 29.932,34.308 29.846,34.565C29.76,34.822 29.782,35.103 29.907,35.343C37.795,50.546 46.977,61.035 49.265,63.541C48.233,65.177 47.128,66.811 45.941,68.416C34.293,59.667 23.417,39.727 18.834,29.403C21.674,28.348 31.312,25.315 48.297,25.315C61.506,25.315 70.217,27.093 75.503,28.773ZM50.359,61.77C48.18,59.343 42.275,52.432 36.204,42.449C39.781,41.651 49.542,39.701 60.324,39.46C59.298,42.785 56.138,52.122 50.359,61.77ZM19.49,35.467C25.131,46.788 35.061,63.209 45.574,70.622C45.748,70.745 45.95,70.805 46.149,70.805C46.452,70.805 46.75,70.668 46.946,70.41C56.63,57.669 61.402,42.857 62.422,39.434C62.447,39.434 62.472,39.433 62.497,39.433C65.895,39.433 68.043,39.697 69.127,39.881C68.639,42.868 66.722,52.718 61.455,62.306C56.136,71.989 49.381,81.897 47.297,84.901C35.931,74.577 23.284,53.762 19.49,35.467ZM68.752,60.931C62.717,70.456 57.3,77.164 51.732,81.935C54.796,77.35 59.37,70.255 63.208,63.269C69.665,51.513 71.187,39.713 71.249,39.216C71.31,38.728 71.005,38.267 70.531,38.132C70.432,38.103 68.022,37.433 62.497,37.433C49.961,37.433 38.314,39.907 35.125,40.643C34.132,38.953 33.14,37.187 32.165,35.344C44.051,29.85 51.693,29.834 60.541,29.856L61.258,29.856C68.988,29.856 78.467,31.11 81.408,31.527C80.754,36.482 75.229,50.707 68.752,60.931Z" style="fill:rgb(17,17,17);fill-rule:nonzero;"/>
                    </g>
                </g>
                <g id="SvgjsG1008" transform="matrix(9.55407,0,0,9.55407,6.8336e-06,280.532)">
                    <path d="M9.24,21.2L6.52,21.2L6.52,33.96C6.52,35.16 7.52,36.12 8.72,36.12L8.72,39.96C5.4,39.96 2.72,37.28 2.72,33.96L2.72,21.2L-0,21.2L-0,17.36L2.72,17.36L2.72,11.36L6.52,11.36L6.52,17.36L9.24,17.36L9.24,21.2ZM15.04,39.88C15.08,33.6 15.08,23.56 15.04,17.36L11.24,17.4C11.28,23.56 11.28,33.56 11.24,39.84L15.04,39.88ZM11.24,12.6L15.04,12.6L15.04,16.32L11.24,16.32L11.24,12.6ZM21.88,17.36C24.52,17.36 26.68,19.52 26.68,22.16L26.68,40.16L22.84,40.16L22.84,22.16C22.84,21.64 22.4,21.2 21.88,21.2C21.36,21.2 20.92,21.64 20.92,22.16L20.92,40.16L17.08,40.16L17.08,16.64L20.92,16.64L20.92,17.48C21.24,17.4 21.56,17.36 21.88,17.36ZM37.2,17.36L41.16,17.36L35.52,40.76C35.52,40.76 34.64,46.36 29.32,46.48L29.16,46.48L29.16,42.6C29.56,42.6 30,42.48 30.4,42.28C30.4,42.28 32.32,41.72 31.92,38.28L26.88,17.36L30.88,17.36L34.04,30.44L37.2,17.36ZM54.16,11.44L50.36,25.76L54.12,40L50.72,40L48.64,32.16L46.6,40L43.2,40L46.96,25.76L43.16,11.44L46.56,11.44L48.64,19.32L50.76,11.44L54.16,11.44ZM66.36,11.44L62.56,25.76L66.32,40L62.92,40L60.84,32.16L58.8,40L55.4,40L59.16,25.76L55.36,11.44L58.76,11.44L60.84,19.32L62.96,11.44L66.36,11.44ZM72.12,36.24L77.64,36.24L77.64,40L68.36,40L68.36,11.28L72.12,11.28L72.12,36.24ZM93.12,40.24C90.08,40.24 87.64,37.76 87.64,34.76L87.64,30.4L91.52,30.4L91.52,34.76C91.52,35.64 92.24,36.36 93.12,36.36C94,36.36 94.68,35.64 94.68,34.76L94.68,30.96L87.64,21.24L87.64,16.28C87.64,13.24 90.08,10.76 93.12,10.76C96.12,10.76 98.56,13.24 98.56,16.28L98.56,20.6L94.68,20.6L94.68,16.28C94.68,15.36 94,14.68 93.12,14.68C92.24,14.68 91.52,15.36 91.52,16.28L91.52,19.92L98.56,29.64L98.56,34.76C98.56,37.76 96.12,40.24 93.12,40.24ZM109.8,21.2L107.08,21.2L107.08,33.96C107.08,35.16 108.08,36.12 109.28,36.12L109.28,39.96C105.96,39.96 103.28,37.28 103.28,33.96L103.28,21.2L100.56,21.2L100.56,17.36L103.28,17.36L103.28,11.36L107.08,11.36L107.08,17.36L109.8,17.36L109.8,21.2ZM117.48,17.64L121.28,17.64L121.28,40.48L117.48,40.48L117.48,39.64C117.2,39.72 116.88,39.76 116.56,39.76C113.92,39.76 111.8,37.6 111.8,35L111.8,17.68L115.6,17.68L115.6,35C115.6,35.52 116.04,35.96 116.56,35.96C117.08,35.96 117.48,35.52 117.48,35L117.48,17.64ZM134.04,11.44L134.04,40.04L128.08,40.04C125.44,40.04 123.28,37.92 123.28,35.24L123.28,22.16C123.28,19.52 125.44,17.36 128.08,17.36L130.2,17.36L130.2,11.44L134.04,11.44ZM130.2,21.16L128.08,21.16C127.52,21.16 127.08,21.6 127.08,22.16L127.08,35.24C127.08,35.8 127.52,36.24 128.08,36.24L130.2,36.24L130.2,21.16ZM139.84,39.88C139.88,33.6 139.88,23.56 139.84,17.36L136.04,17.4C136.08,23.56 136.08,33.56 136.04,39.84L139.84,39.88ZM136.04,12.6L139.84,12.6L139.84,16.32L136.04,16.32L136.04,12.6ZM147.28,40.04C144.28,40.04 141.88,37.6 141.88,34.64L141.88,22.76C141.88,19.8 144.28,17.36 147.28,17.36C150.24,17.36 152.64,19.8 152.64,22.76L152.64,34.64C152.64,37.6 150.24,40.04 147.28,40.04ZM147.28,21.2C146.4,21.2 145.72,21.92 145.72,22.76L145.72,34.64C145.72,35.52 146.4,36.2 147.28,36.2C148.12,36.2 148.84,35.52 148.84,34.64L148.84,22.76C148.84,21.92 148.12,21.2 147.28,21.2Z" style="fill:rgb(17,17,17);fill-rule:nonzero;"/>
                </g>
            </g>
        </g>
    </g>
</svg>
